# xmcd
#
# Track frame offsets:
#	150
#	11440
#	24457
#	36712
#	48390
#	61785
#	70800
#	86465
#	98287
#	109315
#	120110
#	131345
#	148647
#	163550
#	175595
#	185897
#	200780
#	212900
#	225765
#	240625
#	251605
#	263655
#	276187
#
# Disc length: 3893 seconds
#
# Revision: 1
# Processed by: cddbd v1.4PL0 Copyright (c) Steve Scherf et al.
# Submitted via: EasyCDDAExtractor 6.0.0.1
#
DISCID=360f3317
DTITLE=Tonico and Tinoco - Dose Dupla Vol.05(dimas)
DYEAR=1996
DGENRE=Sertaneja
TTITLE0=Meu Sertao, Moreninha Linda-Tonico and Tinoco
TTITLE1=Cabocla-Tonico and Tinoco
TTITLE2=Pe de Ipe-Tonico and Tinoco
TTITLE3=Desafio-Tonico and Tinoco
TTITLE4=Meu Sertao-Tonico and Tinoco
TTITLE5=Rancheira Junina-Tonico and Tinoco
TTITLE6=Ferreirinha-Tonico and Tinoco
TTITLE7=Saudade-Tonico and Tinoco
TTITLE8=Velho Carreiro-Tonico and Tinoco
TTITLE9=Paranaense-Tonico and Tinoco
TTITLE10=Padecimento-Tonico and Tinoco
TTITLE11=Meu Sertao, Moreninha Linda-Tonico and Tinoco
TTITLE12=Ultimo Adeus-Tonico and Tinoco
TTITLE13=Carreiro Sebastiao-Tonico and Tinoco
TTITLE14=Ranchinho de Taquara-Tonico and Tinoco
TTITLE15=Saudades de Araraquara-Tonico and Tinoco
TTITLE16=Gaucho Alegre-Tonico and Tinoco
TTITLE17=Canoeiro-Tonico and Tinoco
TTITLE18=Teu Nome Tem Sete Letras-Tonico and Tinoco
TTITLE19=Jangadeiro do Norte-Tonico and Tinoco
TTITLE20=Bombardeio-Tonico and Tinoco
TTITLE21=Duas Cartas-Tonico and Tinoco
TTITLE22=Fandango Mineiro-Tonico and Tinoco
EXTD=
EXTT0=
EXTT1=
EXTT2=
EXTT3=
EXTT4=
EXTT5=
EXTT6=
EXTT7=
EXTT8=
EXTT9=
EXTT10=
EXTT11=
EXTT12=
EXTT13=
EXTT14=
EXTT15=
EXTT16=
EXTT17=
EXTT18=
EXTT19=
EXTT20=
EXTT21=
EXTT22=
PLAYORDER=
